Coordinates
version=1
nRows=9
nColumns=24
inDegrees=yes

Units are S.I. units (second, meters, Newtons, ...)
Angles are in degrees.

endheader
time	pelvis_tilt	pelvis_list	pelvis_rotation	pelvis_tx	pelvis_ty	pelvis_tz	hip_flexion_r	hip_adduction_r	hip_rotation_r	knee_angle_r	ankle_angle_r	subtalar_angle_r	mtp_angle_r	hip_flexion_l	hip_adduction_l	hip_rotation_l	knee_angle_l	ankle_angle_l	subtalar_angle_l	mtp_angle_l	lumbar_extension	lumbar_bending	lumbar_rotation
      1.65000000	      7.52020875	    -11.53166451	      6.44733509	      0.57565823	      0.91199743	     -0.00502757	      1.23055176	     17.08440358	     -9.92091012	    -15.24267365	     17.08889763	     -6.05292750	     28.06718567	     13.03806922	    -11.88480118	      6.30377100	    -70.70981449	     16.08765714	     -1.14652603	     27.61913168	    -22.40187616	     11.08784149	     -4.76187309
      1.65500000	      7.64238571	    -11.42627715	      6.40980885	      0.58334392	      0.91294031	     -0.00467125	      0.13209792	     17.16793233	     -9.26618941	    -14.49795345	     17.10574771	     -6.41546159	     27.91585950	     13.61060703	    -11.61994006	      6.22395833	    -70.12426121	     16.54190619	     -1.28474266	     27.55990440	    -22.50878121	     10.96886432	     -4.66958034
      1.66000000	      7.76595184	    -11.31334595	      6.35866494	      0.59101540	      0.91381689	     -0.00427296	     -0.99096811	     17.24342494	     -8.53541104	    -13.71160460	     17.07511828	     -6.84355510	     27.73197653	     14.15594160	    -11.36363035	      6.10881720	    -69.45772650	     16.93108520	     -1.43806254	     27.46270233	    -22.62029396	     10.83233748	     -4.57906958
      1.66500000	      7.88354772	    -11.19976456	      6.30681986	      0.59869298	      0.91460949	     -0.00391249	     -2.11641279	     17.30602172	     -7.78333351	    -12.91332033	     17.02280049	     -7.31931899	     27.53671043	     14.67685907	    -11.10558900	      5.99100342	    -68.70114246	     17.29433259	     -1.62168411	     27.34722084	    -22.72048854	     10.70038852	     -4.48427096
      1.67000000	      7.98764931	    -11.08021885	      6.23878036	      0.60637062	      0.91533035	     -0.00351834	     -3.24428383	     17.35386606	     -6.98072134	    -12.08939268	     16.93687413	     -7.83766598	     27.32331849	     15.17737048	    -10.85304986	      5.84690866	    -67.85328203	     17.60809662	     -1.81815532	     27.20638411	    -22.80814459	     10.55258868	     -4.38918366
      1.67500000	      8.08993148	    -10.96453654	      6.16596401	      0.61404162	      0.91596347	     -0.00313414	     -4.37967532	     17.39314268	     -6.16767301	    -11.24694224	     16.82542156	     -8.38639300	     27.10285010	     15.65150705	    -10.61071503	      5.69267409	    -66.92315948	     17.89514293	     -2.03121533	     27.05272377	    -22.89247483	     10.40851527	     -4.29134168
      1.68000000	      8.18846747	    -10.84440138	      6.07581144	      0.62170277	      0.91652361	     -0.00275220	     -5.51802789	     17.41207522	     -5.32854465	    -10.39876671	     16.68722378	     -8.97458642	     26.86884888	     16.09271362	    -10.37383640	      5.51010605	    -65.90459239	     18.14143908	     -2.25596704	     26.87930620	    -22.97668203	     10.25695167	     -4.17723826
      1.68500000	      8.27650385	    -10.72749553	      5.97372854	      0.62934942	      0.91699057	     -0.00237303	     -6.64612999	     17.41661003	     -4.50240091	     -9.55040648	     16.53679940	     -9.55237760	     26.63418429	     16.51415811	    -10.14557691	      5.31745037	    -64.80504537	     18.35638576	     -2.48215327	     26.69690066	    -23.05001021	     10.10583168	     -4.05817267
      1.69000000	      8.33168580	    -10.64514452	      5.82250732	      0.63699178	      0.91733660	     -0.00191215	     -7.73804573	     17.43701053	     -3.61289972	     -8.71597575	     16.36827042	    -10.15339026	     26.30560481	     16.94168575	     -9.98643257	      5.06740693	    -63.64048830	     18.56519684	     -2.62401321	     26.40353545	    -23.09330493	      9.97170429	     -3.88923846
